<?xml version="1.0" encoding="UTF-8" standalone="no"?>
<!DOCTYPE svg PUBLIC "-//W3C//DTD SVG 1.1//EN"
 "http://www.w3.org/Graphics/SVG/1.1/DTD/svg11.dtd">
<!-- Generated by graphviz version 2.43.0 (0)
 -->
<!-- Title: %3 Pages: 1 -->
<svg width="603pt" height="1205pt"
 viewBox="0.00 0.00 602.50 1205.00" xmlns="http://www.w3.org/2000/svg" xmlns:xlink="http://www.w3.org/1999/xlink">
<g id="graph0" class="graph" transform="scale(1 1) rotate(0) translate(4 1201)">
<title>%3</title>
<polygon fill="white" stroke="transparent" points="-4,4 -4,-1201 598.5,-1201 598.5,4 -4,4"/>
<!-- compile_record -->
<g id="node1" class="node">
<title>compile_record</title>
<polygon fill="none" stroke="black" points="213.5,-191.5 213.5,-219.5 394.5,-219.5 394.5,-191.5 213.5,-191.5"/>
<text text-anchor="start" x="244" y="-202.7" font-family="Helvetica,sans-Serif" font-weight="bold" font-size="16.00">compile_record</text>
<polygon fill="none" stroke="black" points="213.5,-166.5 213.5,-191.5 394.5,-191.5 394.5,-166.5 213.5,-166.5"/>
<text text-anchor="start" x="218.5" y="-176.3" font-family="Helvetica,sans-Serif" text-decoration="underline" font-size="14.00">id</text>
<text text-anchor="start" x="229.5" y="-176.3" font-family="Helvetica,sans-Serif" font-size="14.00"> [INTEGER]</text>
<polygon fill="none" stroke="black" points="213.5,-141.5 213.5,-166.5 394.5,-166.5 394.5,-141.5 213.5,-141.5"/>
<text text-anchor="start" x="218.5" y="-151.3" font-family="Helvetica,sans-Serif" font-size="14.00">paperid</text>
<text text-anchor="start" x="264.5" y="-151.3" font-family="Helvetica,sans-Serif" font-size="14.00"> [VARCHAR(32)]</text>
<polygon fill="none" stroke="black" points="213.5,-116.5 213.5,-141.5 394.5,-141.5 394.5,-116.5 213.5,-116.5"/>
<text text-anchor="start" x="218.5" y="-126.3" font-family="Helvetica,sans-Serif" font-size="14.00">version</text>
<text text-anchor="start" x="262.5" y="-126.3" font-family="Helvetica,sans-Serif" font-size="14.00"> [VARCHAR(9)]</text>
<polygon fill="none" stroke="black" points="213.5,-91.5 213.5,-116.5 394.5,-116.5 394.5,-91.5 213.5,-91.5"/>
<text text-anchor="start" x="218.5" y="-101.3" font-family="Helvetica,sans-Serif" font-size="14.00">task_status</text>
<text text-anchor="start" x="287.5" y="-101.3" font-family="Helvetica,sans-Serif" font-size="14.00"> [VARCHAR(16)]</text>
<polygon fill="none" stroke="black" points="213.5,-66.5 213.5,-91.5 394.5,-91.5 394.5,-66.5 213.5,-66.5"/>
<text text-anchor="start" x="218.5" y="-76.3" font-family="Helvetica,sans-Serif" font-size="14.00">started</text>
<text text-anchor="start" x="260.5" y="-76.3" font-family="Helvetica,sans-Serif" font-size="14.00"> [DATETIME]</text>
<polygon fill="none" stroke="black" points="213.5,-41.5 213.5,-66.5 394.5,-66.5 394.5,-41.5 213.5,-41.5"/>
<text text-anchor="start" x="218.5" y="-51.3" font-family="Helvetica,sans-Serif" font-size="14.00">result</text>
<text text-anchor="start" x="252.5" y="-51.3" font-family="Helvetica,sans-Serif" font-size="14.00"> [TEXT]</text>
</g>
<!-- paper_status -->
<g id="node2" class="node">
<title>paper_status</title>
<polygon fill="none" stroke="black" points="219.5,-538 219.5,-566 391.5,-566 391.5,-538 219.5,-538"/>
<text text-anchor="start" x="255.5" y="-549.2" font-family="Helvetica,sans-Serif" font-weight="bold" font-size="16.00">paper_status</text>
<polygon fill="none" stroke="black" points="219.5,-513 219.5,-538 391.5,-538 391.5,-513 219.5,-513"/>
<text text-anchor="start" x="224.5" y="-522.8" font-family="Helvetica,sans-Serif" text-decoration="underline" font-size="14.00">id</text>
<text text-anchor="start" x="235.5" y="-522.8" font-family="Helvetica,sans-Serif" font-size="14.00"> [INTEGER]</text>
<polygon fill="none" stroke="black" points="219.5,-488 219.5,-513 391.5,-513 391.5,-488 219.5,-488"/>
<text text-anchor="start" x="224.5" y="-497.8" font-family="Helvetica,sans-Serif" font-size="14.00">paperid</text>
<text text-anchor="start" x="270.5" y="-497.8" font-family="Helvetica,sans-Serif" font-size="14.00"> [VARCHAR(32)]</text>
<polygon fill="none" stroke="black" points="219.5,-463 219.5,-488 391.5,-488 391.5,-463 219.5,-463"/>
<text text-anchor="start" x="224.5" y="-472.8" font-family="Helvetica,sans-Serif" font-size="14.00">venue</text>
<text text-anchor="start" x="261.5" y="-472.8" font-family="Helvetica,sans-Serif" font-size="14.00"> [VARCHAR(32)]</text>
<polygon fill="none" stroke="black" points="219.5,-438 219.5,-463 391.5,-463 391.5,-438 219.5,-438"/>
<text text-anchor="start" x="224.5" y="-447.8" font-family="Helvetica,sans-Serif" font-size="14.00">email</text>
<text text-anchor="start" x="258.5" y="-447.8" font-family="Helvetica,sans-Serif" font-size="14.00"> [VARCHAR(50)]</text>
<polygon fill="none" stroke="black" points="219.5,-413 219.5,-438 391.5,-438 391.5,-413 219.5,-413"/>
<text text-anchor="start" x="224.5" y="-422.8" font-family="Helvetica,sans-Serif" font-size="14.00">submitted</text>
<text text-anchor="start" x="284.5" y="-422.8" font-family="Helvetica,sans-Serif" font-size="14.00"> [VARCHAR(32)]</text>
<polygon fill="none" stroke="black" points="219.5,-388 219.5,-413 391.5,-413 391.5,-388 219.5,-388"/>
<text text-anchor="start" x="224.5" y="-397.8" font-family="Helvetica,sans-Serif" font-size="14.00">accepted</text>
<text text-anchor="start" x="279.5" y="-397.8" font-family="Helvetica,sans-Serif" font-size="14.00"> [VARCHAR(32)]</text>
<polygon fill="none" stroke="black" points="219.5,-363 219.5,-388 391.5,-388 391.5,-363 219.5,-363"/>
<text text-anchor="start" x="224.5" y="-372.8" font-family="Helvetica,sans-Serif" font-size="14.00">status</text>
<text text-anchor="start" x="261.5" y="-372.8" font-family="Helvetica,sans-Serif" font-size="14.00"> [VARCHAR(16)]</text>
<polygon fill="none" stroke="black" points="219.5,-338 219.5,-363 391.5,-363 391.5,-338 219.5,-338"/>
<text text-anchor="start" x="224.5" y="-347.8" font-family="Helvetica,sans-Serif" font-size="14.00">issue_id</text>
<text text-anchor="start" x="274.5" y="-347.8" font-family="Helvetica,sans-Serif" font-size="14.00"> [INTEGER]</text>
</g>
<!-- paper_status&#45;&#45;compile_record -->
<g id="edge1" class="edge">
<title>paper_status&#45;&#45;compile_record</title>
<path fill="none" stroke="#7f7f7f" stroke-dasharray="5,2" d="M304.77,-333.84C304.54,-297.51 304.29,-258.01 304.08,-223.63"/>
<text text-anchor="start" x="273.08" y="-227.43" font-family="Times,serif" font-size="14.00">{0,1}</text>
<text text-anchor="start" x="279.77" y="-322.64" font-family="Times,serif" font-size="14.00">0..N</text>
</g>
<!-- discussion -->
<g id="node6" class="node">
<title>discussion</title>
<polygon fill="none" stroke="black" points="19.5,-228.5 19.5,-256.5 177.5,-256.5 177.5,-228.5 19.5,-228.5"/>
<text text-anchor="start" x="56" y="-239.7" font-family="Helvetica,sans-Serif" font-weight="bold" font-size="16.00">discussion</text>
<polygon fill="none" stroke="black" points="19.5,-203.5 19.5,-228.5 177.5,-228.5 177.5,-203.5 19.5,-203.5"/>
<text text-anchor="start" x="24.5" y="-213.3" font-family="Helvetica,sans-Serif" text-decoration="underline" font-size="14.00">id</text>
<text text-anchor="start" x="35.5" y="-213.3" font-family="Helvetica,sans-Serif" font-size="14.00"> [INTEGER]</text>
<polygon fill="none" stroke="black" points="19.5,-178.5 19.5,-203.5 177.5,-203.5 177.5,-178.5 19.5,-178.5"/>
<text text-anchor="start" x="24.5" y="-188.3" font-family="Helvetica,sans-Serif" font-size="14.00">paperid</text>
<text text-anchor="start" x="70.5" y="-188.3" font-family="Helvetica,sans-Serif" font-size="14.00"> [VARCHAR(32)]</text>
<polygon fill="none" stroke="black" points="19.5,-153.5 19.5,-178.5 177.5,-178.5 177.5,-153.5 19.5,-153.5"/>
<text text-anchor="start" x="24.5" y="-163.3" font-family="Helvetica,sans-Serif" font-size="14.00">creator_id</text>
<text text-anchor="start" x="85.5" y="-163.3" font-family="Helvetica,sans-Serif" font-size="14.00"> [INTEGER]</text>
<polygon fill="none" stroke="black" points="19.5,-128.5 19.5,-153.5 177.5,-153.5 177.5,-128.5 19.5,-128.5"/>
<text text-anchor="start" x="24.5" y="-138.3" font-family="Helvetica,sans-Serif" font-size="14.00">created</text>
<text text-anchor="start" x="70.5" y="-138.3" font-family="Helvetica,sans-Serif" font-size="14.00"> [DATETIME]</text>
<polygon fill="none" stroke="black" points="19.5,-103.5 19.5,-128.5 177.5,-128.5 177.5,-103.5 19.5,-103.5"/>
<text text-anchor="start" x="24.5" y="-113.3" font-family="Helvetica,sans-Serif" font-size="14.00">pageno</text>
<text text-anchor="start" x="70.5" y="-113.3" font-family="Helvetica,sans-Serif" font-size="14.00"> [INTEGER]</text>
<polygon fill="none" stroke="black" points="19.5,-78.5 19.5,-103.5 177.5,-103.5 177.5,-78.5 19.5,-78.5"/>
<text text-anchor="start" x="24.5" y="-88.3" font-family="Helvetica,sans-Serif" font-size="14.00">lineno</text>
<text text-anchor="start" x="61.5" y="-88.3" font-family="Helvetica,sans-Serif" font-size="14.00"> [INTEGER]</text>
<polygon fill="none" stroke="black" points="19.5,-53.5 19.5,-78.5 177.5,-78.5 177.5,-53.5 19.5,-53.5"/>
<text text-anchor="start" x="24.5" y="-63.3" font-family="Helvetica,sans-Serif" font-size="14.00">text</text>
<text text-anchor="start" x="46.5" y="-63.3" font-family="Helvetica,sans-Serif" font-size="14.00"> [TEXT]</text>
<polygon fill="none" stroke="black" points="19.5,-28.5 19.5,-53.5 177.5,-53.5 177.5,-28.5 19.5,-28.5"/>
<text text-anchor="start" x="24.5" y="-38.3" font-family="Helvetica,sans-Serif" font-size="14.00">reply</text>
<text text-anchor="start" x="54.5" y="-38.3" font-family="Helvetica,sans-Serif" font-size="14.00"> [TEXT]</text>
<polygon fill="none" stroke="black" points="19.5,-3.5 19.5,-28.5 177.5,-28.5 177.5,-3.5 19.5,-3.5"/>
<text text-anchor="start" x="24.5" y="-13.3" font-family="Helvetica,sans-Serif" font-size="14.00">status</text>
<text text-anchor="start" x="61.5" y="-13.3" font-family="Helvetica,sans-Serif" font-size="14.00"> [VARCHAR(9)]</text>
</g>
<!-- paper_status&#45;&#45;discussion -->
<g id="edge6" class="edge">
<title>paper_status&#45;&#45;discussion</title>
<path fill="none" stroke="#7f7f7f" stroke-dasharray="5,2" d="M229.6,-333.84C214.25,-310.16 198.03,-285.12 182.43,-261.04"/>
<text text-anchor="start" x="151.43" y="-264.84" font-family="Times,serif" font-size="14.00">{0,1}</text>
<text text-anchor="start" x="204.6" y="-322.64" font-family="Times,serif" font-size="14.00">0..N</text>
</g>
<!-- log_event -->
<g id="node8" class="node">
<title>log_event</title>
<polygon fill="none" stroke="black" points="428.5,-166.5 428.5,-194.5 586.5,-194.5 586.5,-166.5 428.5,-166.5"/>
<text text-anchor="start" x="469.5" y="-177.7" font-family="Helvetica,sans-Serif" font-weight="bold" font-size="16.00">log_event</text>
<polygon fill="none" stroke="black" points="428.5,-141.5 428.5,-166.5 586.5,-166.5 586.5,-141.5 428.5,-141.5"/>
<text text-anchor="start" x="433.5" y="-151.3" font-family="Helvetica,sans-Serif" text-decoration="underline" font-size="14.00">id</text>
<text text-anchor="start" x="444.5" y="-151.3" font-family="Helvetica,sans-Serif" font-size="14.00"> [INTEGER]</text>
<polygon fill="none" stroke="black" points="428.5,-116.5 428.5,-141.5 586.5,-141.5 586.5,-116.5 428.5,-116.5"/>
<text text-anchor="start" x="433.5" y="-126.3" font-family="Helvetica,sans-Serif" font-size="14.00">paperid</text>
<text text-anchor="start" x="479.5" y="-126.3" font-family="Helvetica,sans-Serif" font-size="14.00"> [VARCHAR(32)]</text>
<polygon fill="none" stroke="black" points="428.5,-91.5 428.5,-116.5 586.5,-116.5 586.5,-91.5 428.5,-91.5"/>
<text text-anchor="start" x="433.5" y="-101.3" font-family="Helvetica,sans-Serif" font-size="14.00">dt</text>
<text text-anchor="start" x="445.5" y="-101.3" font-family="Helvetica,sans-Serif" font-size="14.00"> [DATETIME]</text>
<polygon fill="none" stroke="black" points="428.5,-66.5 428.5,-91.5 586.5,-91.5 586.5,-66.5 428.5,-66.5"/>
<text text-anchor="start" x="433.5" y="-76.3" font-family="Helvetica,sans-Serif" font-size="14.00">action</text>
<text text-anchor="start" x="470.5" y="-76.3" font-family="Helvetica,sans-Serif" font-size="14.00"> [TEXT]</text>
</g>
<!-- paper_status&#45;&#45;log_event -->
<g id="edge7" class="edge">
<title>paper_status&#45;&#45;log_event</title>
<path fill="none" stroke="#7f7f7f" stroke-dasharray="5,2" d="M379.57,-333.84C408.28,-288.43 440.13,-238.06 464.86,-198.94"/>
<text text-anchor="start" x="433.86" y="-202.74" font-family="Times,serif" font-size="14.00">{0,1}</text>
<text text-anchor="start" x="354.57" y="-322.64" font-family="Times,serif" font-size="14.00">0..N</text>
</g>
<!-- issue -->
<g id="node3" class="node">
<title>issue</title>
<polygon fill="none" stroke="black" points="232.5,-721.5 232.5,-749.5 379.5,-749.5 379.5,-721.5 232.5,-721.5"/>
<text text-anchor="start" x="285" y="-732.7" font-family="Helvetica,sans-Serif" font-weight="bold" font-size="16.00">issue</text>
<polygon fill="none" stroke="black" points="232.5,-696.5 232.5,-721.5 379.5,-721.5 379.5,-696.5 232.5,-696.5"/>
<text text-anchor="start" x="237.5" y="-706.3" font-family="Helvetica,sans-Serif" text-decoration="underline" font-size="14.00">id</text>
<text text-anchor="start" x="248.5" y="-706.3" font-family="Helvetica,sans-Serif" font-size="14.00"> [INTEGER]</text>
<polygon fill="none" stroke="black" points="232.5,-671.5 232.5,-696.5 379.5,-696.5 379.5,-671.5 232.5,-671.5"/>
<text text-anchor="start" x="237.5" y="-681.3" font-family="Helvetica,sans-Serif" font-size="14.00">name</text>
<text text-anchor="start" x="272.5" y="-681.3" font-family="Helvetica,sans-Serif" font-size="14.00"> [VARCHAR(32)]</text>
<polygon fill="none" stroke="black" points="232.5,-646.5 232.5,-671.5 379.5,-671.5 379.5,-646.5 232.5,-646.5"/>
<text text-anchor="start" x="237.5" y="-656.3" font-family="Helvetica,sans-Serif" font-size="14.00">volume_id</text>
<text text-anchor="start" x="300.5" y="-656.3" font-family="Helvetica,sans-Serif" font-size="14.00"> [INTEGER]</text>
</g>
<!-- issue&#45;&#45;paper_status -->
<g id="edge2" class="edge">
<title>issue&#45;&#45;paper_status</title>
<path fill="none" stroke="#7f7f7f" stroke-dasharray="5,2" d="M305.5,-642.93C305.5,-621.4 305.5,-595.78 305.5,-570.43"/>
<text text-anchor="start" x="274.5" y="-574.23" font-family="Times,serif" font-size="14.00">{0,1}</text>
<text text-anchor="start" x="280.5" y="-631.73" font-family="Times,serif" font-size="14.00">0..N</text>
</g>
<!-- volume -->
<g id="node4" class="node">
<title>volume</title>
<polygon fill="none" stroke="black" points="232.5,-931 232.5,-959 379.5,-959 379.5,-931 232.5,-931"/>
<text text-anchor="start" x="277.5" y="-942.2" font-family="Helvetica,sans-Serif" font-weight="bold" font-size="16.00">volume</text>
<polygon fill="none" stroke="black" points="232.5,-906 232.5,-931 379.5,-931 379.5,-906 232.5,-906"/>
<text text-anchor="start" x="237.5" y="-915.8" font-family="Helvetica,sans-Serif" text-decoration="underline" font-size="14.00">id</text>
<text text-anchor="start" x="248.5" y="-915.8" font-family="Helvetica,sans-Serif" font-size="14.00"> [INTEGER]</text>
<polygon fill="none" stroke="black" points="232.5,-881 232.5,-906 379.5,-906 379.5,-881 232.5,-881"/>
<text text-anchor="start" x="237.5" y="-890.8" font-family="Helvetica,sans-Serif" font-size="14.00">name</text>
<text text-anchor="start" x="272.5" y="-890.8" font-family="Helvetica,sans-Serif" font-size="14.00"> [VARCHAR(32)]</text>
<polygon fill="none" stroke="black" points="232.5,-856 232.5,-881 379.5,-881 379.5,-856 232.5,-856"/>
<text text-anchor="start" x="237.5" y="-865.8" font-family="Helvetica,sans-Serif" font-size="14.00">journal_id</text>
<text text-anchor="start" x="296.5" y="-865.8" font-family="Helvetica,sans-Serif" font-size="14.00"> [INTEGER]</text>
<polygon fill="none" stroke="black" points="232.5,-831 232.5,-856 379.5,-856 379.5,-831 232.5,-831"/>
<text text-anchor="start" x="237.5" y="-840.8" font-family="Helvetica,sans-Serif" font-size="14.00">description</text>
<text text-anchor="start" x="303.5" y="-840.8" font-family="Helvetica,sans-Serif" font-size="14.00"> [TEXT]</text>
</g>
<!-- volume&#45;&#45;issue -->
<g id="edge3" class="edge">
<title>volume&#45;&#45;issue</title>
<path fill="none" stroke="#7f7f7f" stroke-dasharray="5,2" d="M305.5,-826.79C305.5,-803.07 305.5,-776.71 305.5,-754.16"/>
<text text-anchor="start" x="274.5" y="-757.96" font-family="Times,serif" font-size="14.00">{0,1}</text>
<text text-anchor="start" x="280.5" y="-815.59" font-family="Times,serif" font-size="14.00">0..N</text>
</g>
<!-- journal -->
<g id="node5" class="node">
<title>journal</title>
<polygon fill="none" stroke="black" points="208.5,-1164.5 208.5,-1192.5 402.5,-1192.5 402.5,-1164.5 208.5,-1164.5"/>
<text text-anchor="start" x="278.5" y="-1175.7" font-family="Helvetica,sans-Serif" font-weight="bold" font-size="16.00">journal</text>
<polygon fill="none" stroke="black" points="208.5,-1139.5 208.5,-1164.5 402.5,-1164.5 402.5,-1139.5 208.5,-1139.5"/>
<text text-anchor="start" x="213.5" y="-1149.3" font-family="Helvetica,sans-Serif" text-decoration="underline" font-size="14.00">id</text>
<text text-anchor="start" x="224.5" y="-1149.3" font-family="Helvetica,sans-Serif" font-size="14.00"> [INTEGER]</text>
<polygon fill="none" stroke="black" points="208.5,-1114.5 208.5,-1139.5 402.5,-1139.5 402.5,-1114.5 208.5,-1114.5"/>
<text text-anchor="start" x="213.5" y="-1124.3" font-family="Helvetica,sans-Serif" font-size="14.00">ISSN</text>
<text text-anchor="start" x="245.5" y="-1124.3" font-family="Helvetica,sans-Serif" font-size="14.00"> [VARCHAR(10)]</text>
<polygon fill="none" stroke="black" points="208.5,-1089.5 208.5,-1114.5 402.5,-1114.5 402.5,-1089.5 208.5,-1089.5"/>
<text text-anchor="start" x="213.5" y="-1099.3" font-family="Helvetica,sans-Serif" font-size="14.00">DOI_PREFIX</text>
<text text-anchor="start" x="295.5" y="-1099.3" font-family="Helvetica,sans-Serif" font-size="14.00"> [VARCHAR(10)]</text>
<polygon fill="none" stroke="black" points="208.5,-1064.5 208.5,-1089.5 402.5,-1089.5 402.5,-1064.5 208.5,-1064.5"/>
<text text-anchor="start" x="213.5" y="-1074.3" font-family="Helvetica,sans-Serif" font-size="14.00">name</text>
<text text-anchor="start" x="248.5" y="-1074.3" font-family="Helvetica,sans-Serif" font-size="14.00"> [VARCHAR(32)]</text>
<polygon fill="none" stroke="black" points="208.5,-1039.5 208.5,-1064.5 402.5,-1064.5 402.5,-1039.5 208.5,-1039.5"/>
<text text-anchor="start" x="213.5" y="-1049.3" font-family="Helvetica,sans-Serif" font-size="14.00">longname</text>
<text text-anchor="start" x="274.5" y="-1049.3" font-family="Helvetica,sans-Serif" font-size="14.00"> [TEXT]</text>
</g>
<!-- journal&#45;&#45;volume -->
<g id="edge4" class="edge">
<title>journal&#45;&#45;volume</title>
<path fill="none" stroke="#7f7f7f" stroke-dasharray="5,2" d="M305.5,-1035.95C305.5,-1012.14 305.5,-986.29 305.5,-963.35"/>
<text text-anchor="start" x="274.5" y="-967.15" font-family="Times,serif" font-size="14.00">{0,1}</text>
<text text-anchor="start" x="280.5" y="-1024.75" font-family="Times,serif" font-size="14.00">0..N</text>
</g>
<!-- user -->
<g id="node7" class="node">
<title>user</title>
<polygon fill="none" stroke="black" points="8.5,-513 8.5,-541 185.5,-541 185.5,-513 8.5,-513"/>
<text text-anchor="start" x="80" y="-524.2" font-family="Helvetica,sans-Serif" font-weight="bold" font-size="16.00">user</text>
<polygon fill="none" stroke="black" points="8.5,-488 8.5,-513 185.5,-513 185.5,-488 8.5,-488"/>
<text text-anchor="start" x="13.5" y="-497.8" font-family="Helvetica,sans-Serif" text-decoration="underline" font-size="14.00">id</text>
<text text-anchor="start" x="24.5" y="-497.8" font-family="Helvetica,sans-Serif" font-size="14.00"> [INTEGER]</text>
<polygon fill="none" stroke="black" points="8.5,-463 8.5,-488 185.5,-488 185.5,-463 8.5,-463"/>
<text text-anchor="start" x="13.5" y="-472.8" font-family="Helvetica,sans-Serif" font-size="14.00">email</text>
<text text-anchor="start" x="47.5" y="-472.8" font-family="Helvetica,sans-Serif" font-size="14.00"> [VARCHAR(100)]</text>
<polygon fill="none" stroke="black" points="8.5,-438 8.5,-463 185.5,-463 185.5,-438 8.5,-438"/>
<text text-anchor="start" x="13.5" y="-447.8" font-family="Helvetica,sans-Serif" font-size="14.00">password</text>
<text text-anchor="start" x="71.5" y="-447.8" font-family="Helvetica,sans-Serif" font-size="14.00"> [VARCHAR(200)]</text>
<polygon fill="none" stroke="black" points="8.5,-413 8.5,-438 185.5,-438 185.5,-413 8.5,-413"/>
<text text-anchor="start" x="13.5" y="-422.8" font-family="Helvetica,sans-Serif" font-size="14.00">role</text>
<text text-anchor="start" x="36.5" y="-422.8" font-family="Helvetica,sans-Serif" font-size="14.00"> [VARCHAR(8)]</text>
<polygon fill="none" stroke="black" points="8.5,-388 8.5,-413 185.5,-413 185.5,-388 8.5,-388"/>
<text text-anchor="start" x="13.5" y="-397.8" font-family="Helvetica,sans-Serif" font-size="14.00">created_on</text>
<text text-anchor="start" x="81.5" y="-397.8" font-family="Helvetica,sans-Serif" font-size="14.00"> [DATETIME]</text>
<polygon fill="none" stroke="black" points="8.5,-363 8.5,-388 185.5,-388 185.5,-363 8.5,-363"/>
<text text-anchor="start" x="13.5" y="-372.8" font-family="Helvetica,sans-Serif" font-size="14.00">last_login</text>
<text text-anchor="start" x="71.5" y="-372.8" font-family="Helvetica,sans-Serif" font-size="14.00"> [DATETIME]</text>
</g>
<!-- user&#45;&#45;discussion -->
<g id="edge5" class="edge">
<title>user&#45;&#45;discussion</title>
<path fill="none" stroke="#7f7f7f" stroke-dasharray="5,2" d="M97.08,-358.59C97.27,-328.18 97.48,-293.78 97.69,-261.13"/>
<text text-anchor="start" x="66.69" y="-264.93" font-family="Times,serif" font-size="14.00">{0,1}</text>
<text text-anchor="start" x="72.08" y="-347.39" font-family="Times,serif" font-size="14.00">0..N</text>
</g>
</g>
</svg>
